<?xml version="1.0" standalone="no"?>
<!DOCTYPE svg PUBLIC "-//W3C//DTD SVG 20010904//EN"
 "http://www.w3.org/TR/2001/REC-SVG-20010904/DTD/svg10.dtd">
<svg version="1.0" xmlns="http://www.w3.org/2000/svg"
 width="500.000000pt" height="500.000000pt" viewBox="0 0 500.000000 500.000000"
 preserveAspectRatio="xMidYMid meet">
<metadata>
Created by potrace 1.16, written by Peter Selinger 2001-2019
</metadata>
<g transform="translate(0.000000,500.000000) scale(0.100000,-0.100000)"
fill="#000000" stroke="none">
<path d="M2375 3973 c-21 -4 -59 -21 -205 -92 -47 -23 -116 -48 -155 -56 -110
-22 -325 -37 -508 -33 l-168 3 -40 -42 c-48 -52 -54 -105 -16 -141 13 -12 28
-22 33 -22 6 0 25 -16 44 -35 18 -19 54 -41 79 -49 138 -45 637 -137 873 -161
122 -12 164 -21 245 -51 174 -64 243 -111 347 -234 16 -20 20 -21 34 -7 13 14
12 21 -17 66 -39 61 -122 125 -213 166 -37 17 -68 33 -68 38 0 4 30 7 68 7 89
1 215 24 254 47 38 22 62 60 79 125 10 38 10 49 0 62 -19 23 -34 7 -49 -51
-22 -83 -51 -103 -175 -123 -88 -14 -383 -9 -547 10 -133 16 -415 65 -610 106
-188 40 -224 50 -238 67 -8 10 6 12 61 9 41 -2 91 3 117 10 39 12 55 12 125
-4 99 -22 132 -22 169 -3 16 9 37 13 45 9 33 -14 254 -32 278 -23 17 6 32 5
51 -5 48 -25 114 -29 178 -12 32 9 73 17 89 18 22 2 30 8 30 23 0 27 -48 31
-130 10 -73 -18 -128 -10 -178 27 -29 20 -29 20 -50 0 -21 -18 -28 -19 -132
-7 -61 7 -121 17 -133 24 -19 10 -28 9 -56 -8 -41 -26 -54 -26 -157 -1 -75 18
-87 18 -133 5 -53 -15 -251 -15 -274 -1 -21 13 -13 47 17 77 36 35 81 38 129
9 38 -23 68 -26 75 -7 4 10 45 15 165 20 255 11 355 29 465 84 38 19 47 21 47
8 0 -26 38 -16 62 16 78 104 208 86 208 -30 0 -21 -5 -31 -15 -31 -8 0 -15 8
-15 19 0 34 -38 71 -74 71 -35 0 -66 -25 -66 -53 0 -9 -7 -20 -16 -25 -9 -5
-14 -18 -12 -28 3 -15 16 -21 68 -28 36 -4 83 -8 105 -7 22 1 66 -4 98 -11 48
-9 60 -9 67 3 12 19 -3 34 -50 48 -33 10 -40 16 -40 36 0 21 5 25 31 25 17 0
38 4 48 10 14 7 26 3 52 -15 38 -29 70 -32 104 -9 24 16 26 15 60 -15 36 -31
84 -41 114 -22 9 6 31 0 63 -17 l50 -26 36 20 36 19 33 -33 c35 -36 56 -38 61
-5 3 23 -68 93 -96 93 -9 0 -28 -9 -42 -19 -24 -19 -25 -19 -74 6 -45 23 -53
24 -87 13 -37 -13 -39 -12 -79 24 -22 20 -45 36 -50 36 -6 0 -24 -10 -41 -22
-24 -18 -33 -20 -47 -10 -52 37 -74 43 -104 33 -47 -17 -66 -13 -91 15 -35 41
-95 65 -142 57z"/>
<path d="M1635 2503 c-3 -9 -2 -20 2 -24 21 -20 565 -299 573 -294 25 16 -1
36 -137 108 -82 42 -212 110 -290 151 -117 62 -142 72 -148 59z"/>
<path d="M3130 2423 c-241 -219 -234 -213 -219 -228 12 -13 36 6 181 137 129
118 165 155 156 165 -6 7 -13 13 -17 13 -3 0 -49 -39 -101 -87z"/>
<path d="M1812 2176 c-141 -46 -208 -201 -138 -321 65 -110 198 -152 320 -101
l37 15 -21 41 c-23 45 -20 44 -70 29 -76 -23 -160 18 -179 87 -29 104 77 191
185 152 l42 -15 21 44 21 44 -37 15 c-52 22 -131 26 -181 10z"/>
<path d="M2135 2006 c-53 -23 -85 -71 -85 -124 0 -62 29 -108 83 -132 56 -26
103 -25 157 3 59 30 83 65 83 122 0 49 -19 84 -66 119 -34 25 -129 32 -172 12z"/>
<path d="M2480 2002 c-106 -58 -105 -193 0 -249 48 -25 81 -29 129 -12 35 12
36 14 17 49 -12 20 -21 24 -49 22 -64 -6 -98 54 -61 106 13 19 24 23 56 20 35
-2 42 1 55 26 20 37 7 48 -59 53 -39 3 -62 -1 -88 -15z"/>
<path d="M2736 1997 c-43 -24 -76 -77 -76 -120 0 -40 36 -100 71 -121 16 -10
53 -20 82 -23 130 -12 222 118 155 217 -48 70 -154 92 -232 47z"/>
<path d="M3095 2010 c-76 -31 -102 -148 -50 -226 34 -53 132 -68 176 -28 18
16 19 16 19 1 0 -14 10 -17 50 -17 l50 0 0 135 0 135 -50 0 c-27 0 -50 -4 -50
-9 0 -6 -12 -3 -27 5 -31 15 -86 18 -118 4z"/>
</g>
</svg>
